<svg width="15" height="19" viewBox="0 0 15 19" fill="none" xmlns="http://www.w3.org/2000/svg">
<path d="M14.9 12.731C14.9 14.535 14.5077 15.8953 13.723 16.812C12.9457 17.7287 11.842 18.187 10.412 18.187C10.0013 18.187 9.61633 18.1503 9.257 18.077C8.905 18.0037 8.56767 17.9193 8.245 17.824C7.92233 17.7287 7.60333 17.6443 7.288 17.571C6.98 17.4977 6.66833 17.461 6.353 17.461C6.07433 17.461 5.79567 17.5013 5.517 17.582C5.23833 17.6627 4.978 17.802 4.736 18H3.108L3.515 14.095L4.692 14.909C5.022 14.5057 5.39233 14.216 5.803 14.04C6.221 13.8567 6.672 13.765 7.156 13.765C7.398 13.765 7.61433 13.7833 7.805 13.82C7.99567 13.8567 8.17167 13.9043 8.333 13.963C8.49433 14.0143 8.652 14.062 8.806 14.106C8.96733 14.1427 9.14333 14.161 9.334 14.161C9.72267 14.161 10.0123 14.0547 10.203 13.842C10.3937 13.622 10.489 13.2517 10.489 12.731H14.9ZM7.684 8.463C8.32933 8.111 8.80967 7.77 9.125 7.44C9.44767 7.10267 9.609 6.72867 9.609 6.318C9.609 6.032 9.53567 5.779 9.389 5.559C9.24233 5.33167 9.026 5.15567 8.74 5.031C8.46133 4.899 8.12033 4.833 7.717 4.833C7.00567 4.833 6.44467 5.02 6.034 5.394C5.62333 5.768 5.40333 6.285 5.374 6.945L0.842 6.747C0.893333 5.537 1.205 4.49567 1.777 3.623C2.35633 2.75033 3.15567 2.07933 4.175 1.61C5.19433 1.14067 6.38967 0.906 7.761 0.906C9.11033 0.906 10.269 1.137 11.237 1.599C12.2123 2.061 12.9603 2.688 13.481 3.48C14.0017 4.272 14.262 5.163 14.262 6.153C14.262 6.901 14.0933 7.627 13.756 8.331C13.4187 9.02767 12.8833 9.67667 12.15 10.278C11.4167 10.8793 10.4597 11.411 9.279 11.873L7.079 12.984C6.309 13.27 5.68567 13.6183 5.209 14.029C4.73967 14.4323 4.395 14.953 4.175 15.591C3.96233 16.2217 3.856 17.0247 3.856 18H0.468V17.043C0.468 15.7083 0.640333 14.568 0.985 13.622C1.32967 12.676 1.87967 11.8767 2.635 11.224C3.39033 10.564 4.38767 10.003 5.627 9.541L7.684 8.463Z" fill="white"/>
</svg>
