<svg width="15" height="19" viewBox="0 0 15 19" fill="none" xmlns="http://www.w3.org/2000/svg">
<path d="M0.363 12.489L4.73 12.049C4.83267 12.863 5.104 13.49 5.544 13.93C5.984 14.3627 6.58533 14.579 7.348 14.579C7.79533 14.579 8.17667 14.5057 8.492 14.359C8.81467 14.205 9.05667 13.9923 9.218 13.721C9.38667 13.4423 9.471 13.116 9.471 12.742C9.471 12.302 9.35 11.9207 9.108 11.598C8.87333 11.2753 8.53233 11.026 8.085 10.85C7.63767 10.674 7.10967 10.586 6.501 10.586V8.771C8.16567 8.771 9.55533 8.94333 10.67 9.288C11.792 9.62533 12.6317 10.1387 13.189 10.828C13.7537 11.5173 14.036 12.379 14.036 13.413C14.036 14.4177 13.7867 15.283 13.288 16.009C12.7967 16.735 12.067 17.296 11.099 17.692C10.1383 18.0807 8.95767 18.275 7.557 18.275C5.357 18.275 3.663 17.7837 2.475 16.801C1.287 15.811 0.583 14.3737 0.363 12.489ZM0.737 6.483C0.825 4.657 1.43367 3.26733 2.563 2.314C3.69967 1.35333 5.28 0.873 7.304 0.873C8.61667 0.873 9.735 1.05633 10.659 1.423C11.5903 1.78967 12.298 2.314 12.782 2.996C13.2733 3.678 13.519 4.49567 13.519 5.449C13.519 6.395 13.2477 7.198 12.705 7.858C12.1623 8.51067 11.3703 9.00933 10.329 9.354C9.28767 9.69133 8.01167 9.85633 6.501 9.849V8.034C6.99967 8.034 7.43233 7.957 7.799 7.803C8.16567 7.649 8.45167 7.43267 8.657 7.154C8.86233 6.868 8.965 6.53067 8.965 6.142C8.965 5.81933 8.89167 5.537 8.745 5.295C8.60567 5.053 8.40033 4.86967 8.129 4.745C7.865 4.613 7.54233 4.547 7.161 4.547C6.53033 4.547 6.04267 4.723 5.698 5.075C5.35333 5.427 5.159 5.96233 5.115 6.681L0.737 6.483ZM5.511 8.034H6.501V10.586H5.511V8.034Z" fill="white"/>
</svg>
